<?xml version="1.0" encoding="UTF-8"?>
<svg xmlns="http://www.w3.org/2000/svg" version="1.1" viewBox="0 0 89.8 38">
  <!-- Generator: Adobe Illustrator 29.3.1, SVG Export Plug-In . SVG Version: 2.1.0 Build 151)  -->
  <defs>
    <style>
      .st0 {
        fill: #f6e8df;
      }

      .st1 {
        fill: none;
      }

      .st2 {
        display: none;
      }
    </style>
  </defs>
  <g id="Layer_1" class="st2">
    <g>
      <rect class="st1" y="3" width="71.8" height="15"/>
      <path d="M3.3,17H1.2V3h2.1v14Z"/>
      <path d="M13.3,3l-5.3,11.9h4.3v2.1h-7.5l5.3-11.9h-4.2v-2.1h7.4Z"/>
      <path d="M25.2,3v14h-2.1v-3.3h-4.7l-2.1,3.3h-2.5L22.6,3h2.6ZM19.7,11.6h3.4v-5.4l-3.4,5.4Z"/>
      <path d="M37.4,3l-5.6,7,5.8,7h-2.8l-4.4-5.3-.7.8v4.5h-2.1V3h2.1v6.1l4.9-6.1h2.7Z"/>
      <path d="M49.6,3v14h-2.1v-3.3h-4.7l-2.1,3.3h-2.5l8.8-14h2.6ZM44.1,11.6h3.4v-5.4l-3.4,5.4Z"/>
      <path d="M61.7,3l-4.4,7.4v6.6h-2.1v-6.6l-4.4-7.4h2.5l3,5,3-5h2.5Z"/>
      <path d="M70.6,3v14h-2.1v-3.3h-4.7l-2.1,3.3h-2.5l8.8-14h2.6ZM65,11.6h3.4v-5.4l-3.4,5.4Z"/>
    </g>
    <g>
      <rect class="st1" x="19.9" y="20.5" width="70" height="15"/>
      <path d="M31,20.5v14h-2.1v-5.9h-5.7v5.9h-2.1v-14h2.1v5.9h5.7v-5.9h2.1Z"/>
      <path d="M35.3,34.5h-2.1v-14h2.1v14Z"/>
      <path d="M47.5,34.5h-2.4l-3.1-5.9h-2.4v5.9h-2.1v-14h5.2c1.1,0,2.1.4,2.9,1.2.8.8,1.2,1.7,1.2,2.9s-.2,1.6-.7,2.2c-.4.7-1,1.2-1.8,1.5l3.2,6.2ZM42.7,26.5c.5,0,1-.2,1.4-.6.4-.4.6-.8.6-1.3s-.2-1-.6-1.4c-.4-.4-.8-.6-1.4-.6h-3v3.8h3Z"/>
      <path d="M50.1,32.5c-1.4-1.4-2.1-3.1-2.1-5s.7-3.6,2.1-5,3.1-2.1,5-2.1,3.6.7,5,2.1c1.4,1.4,2.1,3.1,2.1,5s-.7,3.6-2.1,5-3.1,2.1-5,2.1-3.6-.7-5-2.1ZM51.6,24c-1,1-1.5,2.2-1.5,3.5s.5,2.6,1.5,3.5,2.2,1.5,3.5,1.5,2.6-.5,3.5-1.5,1.5-2.2,1.5-3.5-.5-2.6-1.5-3.5-2.2-1.5-3.5-1.5-2.6.5-3.5,1.5Z"/>
      <path d="M67.6,34.6c-.9,0-1.8-.3-2.6-.7-.9-.5-1.5-1.2-1.8-2.1l2-.7c.2.4.5.8,1,1,.4.2.9.4,1.5.4.8,0,1.5-.2,2-.6.4-.4.7-.8.7-1.2,0-.9-.9-1.6-2.8-2.1-3-.8-4.4-2.3-4.3-4.3,0-1.4.7-2.5,1.8-3.2.9-.5,1.9-.8,3.1-.7,1.5,0,2.7.6,3.6,1.6l-1.6,1.4c-.5-.5-1.2-.8-2.1-.9-.6,0-1.2,0-1.6.2-.7.3-1.1.8-1.1,1.6,0,.9.9,1.6,2.8,2.1,1.7.5,2.9,1.2,3.7,2.1.5.7.7,1.4.7,2.2,0,1.1-.6,2-1.5,2.8-.9.7-1.9,1.1-3.2,1.1s-.2,0-.3,0Z"/>
      <path d="M84.2,20.5v14h-2.1v-5.9h-5.7v5.9h-2.1v-14h2.1v5.9h5.7v-5.9h2.1Z"/>
      <path d="M88.5,34.5h-2.1v-14h2.1v14Z"/>
    </g>
    <g>
      <rect x="71.8" y="2.9" width="11" height=".9"/>
      <rect x="87.5" y="9.3" width=".9" height="11"/>
      <rect x="75.8" y="5" width="12.6" height=".9"/>
      <rect x="83.7" y="2.9" width="3" height=".9"/>
      <rect x="81.9" y="7.2" width="6.6" height=".9"/>
      <rect x="83.7" y="2.9" width=".9" height="7.3"/>
      <rect x="81.9" y="2.9" width=".9" height="5.2"/>
      <rect x="87.5" y="5" width=".9" height="3.1"/>
      <rect x="83.7" y="9.3" width="4.8" height=".9"/>
      <rect x="85.8" y="2.9" width=".9" height="12.6"/>
    </g>
  </g>
  <g id="Layer_1_copy">
    <g>
      <rect class="st1" y="3" width="71.8" height="15"/>
      <path class="st0" d="M3.3,17H1.2V3h2.1v14Z"/>
      <path class="st0" d="M13.3,3l-5.3,11.9h4.3v2.1h-7.5l5.3-11.9h-4.2v-2.1h7.4Z"/>
      <path class="st0" d="M25.2,3v14h-2.1v-3.3h-4.7l-2.1,3.3h-2.5L22.6,3h2.6ZM19.7,11.6h3.4v-5.4l-3.4,5.4Z"/>
      <path class="st0" d="M37.4,3l-5.6,7,5.8,7h-2.8l-4.4-5.3-.7.8v4.5h-2.1V3h2.1v6.1l4.9-6.1h2.7Z"/>
      <path class="st0" d="M49.6,3v14h-2.1v-3.3h-4.7l-2.1,3.3h-2.5l8.8-14h2.6ZM44.1,11.6h3.4v-5.4l-3.4,5.4Z"/>
      <path class="st0" d="M61.7,3l-4.4,7.4v6.6h-2.1v-6.6l-4.4-7.4h2.5l3,5,3-5h2.5Z"/>
      <path class="st0" d="M70.6,3v14h-2.1v-3.3h-4.7l-2.1,3.3h-2.5l8.8-14h2.6ZM65,11.6h3.4v-5.4l-3.4,5.4Z"/>
    </g>
    <g>
      <rect class="st1" x="19.9" y="20.5" width="70" height="15"/>
      <path class="st0" d="M31,20.5v14h-2.1v-5.9h-5.7v5.9h-2.1v-14h2.1v5.9h5.7v-5.9h2.1Z"/>
      <path class="st0" d="M35.3,34.5h-2.1v-14h2.1v14Z"/>
      <path class="st0" d="M47.5,34.5h-2.4l-3.1-5.9h-2.4v5.9h-2.1v-14h5.2c1.1,0,2.1.4,2.9,1.2.8.8,1.2,1.7,1.2,2.9s-.2,1.6-.7,2.2c-.4.7-1,1.2-1.8,1.5l3.2,6.2ZM42.7,26.5c.5,0,1-.2,1.4-.6.4-.4.6-.8.6-1.3s-.2-1-.6-1.4c-.4-.4-.8-.6-1.4-.6h-3v3.8h3Z"/>
      <path class="st0" d="M50.1,32.5c-1.4-1.4-2.1-3.1-2.1-5s.7-3.6,2.1-5,3.1-2.1,5-2.1,3.6.7,5,2.1c1.4,1.4,2.1,3.1,2.1,5s-.7,3.6-2.1,5-3.1,2.1-5,2.1-3.6-.7-5-2.1ZM51.6,24c-1,1-1.5,2.2-1.5,3.5s.5,2.6,1.5,3.5,2.2,1.5,3.5,1.5,2.6-.5,3.5-1.5,1.5-2.2,1.5-3.5-.5-2.6-1.5-3.5-2.2-1.5-3.5-1.5-2.6.5-3.5,1.5Z"/>
      <path class="st0" d="M67.6,34.6c-.9,0-1.8-.3-2.6-.7-.9-.5-1.5-1.2-1.8-2.1l2-.7c.2.4.5.8,1,1,.4.2.9.4,1.5.4.8,0,1.5-.2,2-.6.4-.4.7-.8.7-1.2,0-.9-.9-1.6-2.8-2.1-3-.8-4.4-2.3-4.3-4.3,0-1.4.7-2.5,1.8-3.2.9-.5,1.9-.8,3.1-.7,1.5,0,2.7.6,3.6,1.6l-1.6,1.4c-.5-.5-1.2-.8-2.1-.9-.6,0-1.2,0-1.6.2-.7.3-1.1.8-1.1,1.6,0,.9.9,1.6,2.8,2.1,1.7.5,2.9,1.2,3.7,2.1.5.7.7,1.4.7,2.2,0,1.1-.6,2-1.5,2.8-.9.7-1.9,1.1-3.2,1.1s-.2,0-.3,0Z"/>
      <path class="st0" d="M84.2,20.5v14h-2.1v-5.9h-5.7v5.9h-2.1v-14h2.1v5.9h5.7v-5.9h2.1Z"/>
      <path class="st0" d="M88.5,34.5h-2.1v-14h2.1v14Z"/>
    </g>
    <g>
      <rect class="st0" x="71.9" y="3" width="11" height=".9"/>
      <rect class="st0" x="87.6" y="9.4" width=".9" height="10.2"/>
      <rect class="st0" x="75.9" y="5.1" width="12.6" height=".9"/>
      <rect class="st0" x="83.7" y="3" width="3" height=".9"/>
      <rect class="st0" x="81.9" y="7.3" width="6.6" height=".9"/>
      <rect class="st0" x="83.7" y="3" width=".9" height="7.3"/>
      <rect class="st0" x="81.9" y="3" width=".9" height="5.2"/>
      <rect class="st0" x="87.6" y="5.1" width=".9" height="3.1"/>
      <rect class="st0" x="83.7" y="9.4" width="4.8" height=".9"/>
      <rect class="st0" x="85.8" y="3" width=".9" height="12.6"/>
    </g>
  </g>
</svg>