<?xml version="1.0" encoding="UTF-8"?>
<svg id="Logo" xmlns="http://www.w3.org/2000/svg" viewBox="0 0 696.43 765">
  <defs>
    <style>
      .cls-1 {
        fill: #f6e8df;
      }

      .cls-2 {
        fill: #ce5854;
      }

      .cls-3 {
        fill: #c69c6d;
      }

      .cls-4 {
        fill: none;
      }

      .cls-5 {
        fill: #a67c52;
      }

      .cls-6 {
        fill: #232323;
      }

      .cls-7 {
        fill: #2e2e2e;
      }
    </style>
  </defs>
  <path class="cls-5" d="M1.26,414.3c1.83-3.02,5.29-4.73,8.87-4.4,122.84-7.13,245.68-14.27,368.53-21.4,95-6.67,190-13.33,285-20,1.87-.08,16.53-.45,26,11,9.09,10.99,8.64,27.13,1,38-7.12,10.13-18.25,12.5-21,13h-306c-66.47.17-342.13.75-354.53-1.94-5.76-1.25-7.89-4.77-7.89-4.77-.12-.22-2.73-4.94.03-9.49Z"/>
  <rect class="cls-2" x="191.65" y="37.5" width="320" height="725"/>
  <g>
    <rect class="cls-4" x="240.15" y="80.41" width="73.88" height="561.59"/>
    <path d="M287.46,148.42h-8.48v-55.82h8.48v55.82Z"/>
    <path d="M300.07,172.52l-21.05,47.42h17.03v8.48h-30.08l21.05-47.42h-16.72v-8.48h29.77Z"/>
    <path d="M303.63,252.52v55.9h-8.52v-13.05h-18.98l-8.24,13.05h-10.04l35.35-55.9h10.43ZM281.48,286.9h13.63v-21.52l-13.63,21.52Z"/>
    <path d="M303.71,332.52l-22.34,27.81,23.12,28.09h-11.02l-17.54-21.33-2.62,3.24v18.09h-8.48v-55.9h8.48v24.26l19.53-24.26h10.86Z"/>
    <path d="M303.63,412.52v55.9h-8.52v-13.05h-18.98l-8.24,13.05h-10.04l35.35-55.9h10.43ZM281.48,446.9h13.63v-21.52l-13.63,21.52Z"/>
    <path d="M304.86,492.52l-17.42,29.61v26.29h-8.52v-26.29l-17.42-29.61h9.84l11.84,20.08,11.84-20.08h9.84Z"/>
    <path d="M303.63,572.52v55.9h-8.52v-13.05h-18.98l-8.24,13.05h-10.04l35.35-55.9h10.43ZM281.48,606.9h13.63v-21.52l-13.63,21.52Z"/>
  </g>
  <g>
    <rect class="cls-4" x="386.15" y="159.41" width="71.88" height="579.59"/>
    <path d="M448.24,171.52v55.9h-8.48v-23.75h-22.73v23.75h-8.48v-55.82h8.48v23.59h22.73v-23.67h8.48Z"/>
    <path d="M432.46,307.42h-8.48v-55.82h8.48v55.82Z"/>
    <path d="M450.11,387.42h-9.57l-12.23-23.55h-9.57v23.55h-8.48v-55.9h20.62c4.45,0,8.25,1.59,11.41,4.77,3.18,3.15,4.77,6.97,4.77,11.45,0,3.28-.92,6.28-2.77,8.98-1.8,2.66-4.15,4.61-7.07,5.86l12.89,24.84ZM430.89,355.39c2.11,0,3.92-.75,5.43-2.27s2.23-3.28,2.23-5.39-.74-3.96-2.23-5.47c-1.51-1.51-3.32-2.27-5.43-2.27h-12.15v15.39h12.15Z"/>
    <path d="M407.89,459.61c-5.57-5.57-8.36-12.29-8.36-20.16s2.79-14.58,8.36-20.16,12.29-8.36,20.16-8.36,14.58,2.79,20.16,8.36c5.57,5.57,8.36,12.29,8.36,20.16s-2.79,14.58-8.36,20.16-12.29,8.36-20.16,8.36-14.58-2.79-20.16-8.36ZM413.9,425.31c-3.91,3.91-5.86,8.62-5.86,14.14s1.95,10.23,5.86,14.14,8.62,5.86,14.14,5.86,10.23-1.95,14.14-5.86,5.86-8.62,5.86-14.14-1.95-10.23-5.86-14.14-8.62-5.86-14.14-5.86-10.23,1.95-14.14,5.86Z"/>
    <path d="M426.97,547.93c-3.7-.16-7.11-1.15-10.23-2.97-3.54-2.06-5.95-4.82-7.23-8.28l7.97-2.93c.65,1.72,1.99,3.11,4.02,4.18,1.8.91,3.75,1.42,5.86,1.52,3.25.13,5.95-.66,8.09-2.38,1.8-1.46,2.75-3.12,2.85-5,.16-3.57-3.58-6.42-11.21-8.55-11.95-3.36-17.75-9.05-17.38-17.07.23-5.62,2.64-9.83,7.23-12.62,3.49-2.13,7.68-3.09,12.58-2.85,5.94.26,10.7,2.33,14.3,6.21l-6.21,5.78c-2.03-2.19-4.86-3.36-8.48-3.52-2.55-.1-4.73.22-6.52.98-2.81,1.2-4.28,3.33-4.41,6.41-.16,3.52,3.58,6.34,11.21,8.48,6.88,1.93,11.74,4.77,14.61,8.52,1.98,2.6,2.9,5.48,2.77,8.63-.21,4.43-2.21,8.18-6.02,11.25-3.54,2.84-7.79,4.26-12.73,4.26-.37,0-.72-.01-1.05-.04Z"/>
    <path d="M448.24,571.52v55.9h-8.48v-23.75h-22.73v23.75h-8.48v-55.82h8.48v23.59h22.73v-23.67h8.48Z"/>
    <path d="M432.46,707.42h-8.48v-55.82h8.48v55.82Z"/>
  </g>
  <g>
    <rect class="cls-1" x="223.15" y="625" width="4" height="122"/>
    <rect class="cls-1" x="209.15" y="614" width="4" height="85"/>
    <rect class="cls-1" x="239.15" y="695" width="4" height="52"/>
    <rect class="cls-1" x="252.15" y="711" width="4" height="35"/>
    <rect class="cls-1" x="224.15" y="680" width="4" height="34" transform="translate(923.15 470.85) rotate(90)"/>
    <rect class="cls-1" x="230.65" y="689.5" width="4" height="47" transform="translate(945.65 480.35) rotate(90)"/>
    <rect class="cls-1" x="231.15" y="735" width="4" height="20" transform="translate(978.15 511.85) rotate(90)"/>
    <rect class="cls-1" x="311.15" y="625" width="4" height="208" transform="translate(1042.15 415.85) rotate(90)"/>
    <rect class="cls-1" x="370.65" y="623.5" width="4" height="241" transform="translate(1116.65 371.35) rotate(90)"/>
    <rect class="cls-1" x="209.15" y="711" width="4" height="20"/>
  </g>
  <g>
    <rect class="cls-1" x="477.15" y="54" width="4" height="122" transform="translate(958.31 230) rotate(180)"/>
    <rect class="cls-1" x="491.15" y="102" width="4" height="85" transform="translate(986.31 289) rotate(180)"/>
    <rect class="cls-1" x="461.15" y="54" width="4" height="52" transform="translate(926.31 160) rotate(180)"/>
    <rect class="cls-1" x="448.15" y="55" width="4" height="35" transform="translate(900.31 145) rotate(180)"/>
    <rect class="cls-1" x="476.15" y="87" width="4" height="34" transform="translate(374.15 582.15) rotate(-90)"/>
    <rect class="cls-1" x="469.65" y="64.5" width="4" height="47" transform="translate(383.65 559.65) rotate(-90)"/>
    <rect class="cls-1" x="469.15" y="46" width="4" height="20" transform="translate(415.15 527.15) rotate(-90)"/>
    <rect class="cls-1" x="389.15" y="-32" width="4" height="208" transform="translate(319.15 463.15) rotate(-90)"/>
    <rect class="cls-1" x="329.65" y="-63.5" width="4" height="241" transform="translate(274.65 388.65) rotate(-90)"/>
    <rect class="cls-1" x="491.15" y="70" width="4" height="20" transform="translate(986.31 160) rotate(180)"/>
  </g>
  <rect x="509.15" y="35" width="5" height="730"/>
  <rect x="189.15" y="39" width="5" height="726"/>
  <path class="cls-3" d="M30.65,518.38c.36-3.52,2.75-6.54,6.13-7.77,93.66-51.01,187.32-102.02,280.98-153.03,19.83-10.8,36.94-20.84,237.06-133.78,21.04-11.88,42.09-23.75,63.13-35.62,2.67-1.05,13.69-5.05,25.18.05,13.53,6,21.43,21.79,18.36,36.09-2.44,11.37-10.95,17.78-13.47,19.54-83.83,40.33-167.67,80.65-251.5,120.98-71.43,33.64-340.43,160.22-352.67,163.07-5.74,1.34-9.17-.93-9.17-.93-.2-.14-4.58-3.3-4.04-8.59Z"/>
  <path class="cls-7" d="M18.65,627h258.67c4.14.93,7.11,4.64,7.11,8.89s-2.97,7.96-7.11,8.89h-25.78c-4.64.94-8,5.05-8,9.78s3.36,8.84,8,9.78h101.33c4.53.48,8,4.34,8,8.89s-3.47,8.41-8,8.89c-85.63.3-171.26.59-256.89.89-4.85-.32-8.67-4.24-8.89-8.89-.23-4.96,3.7-9.42,8.89-9.78h73.78c5.01-.48,8.89-4.74,8.89-9.78s-3.87-9.3-8.89-9.78H18.65c-4.53-.48-8-4.34-8-8.89s3.47-8.41,8-8.89Z"/>
  <path class="cls-7" d="M166.47,575h82.24c2.84.24,4.96,2.7,4.8,5.4-.14,2.49-2.19,4.58-4.8,4.8h-19.21c-3.06.32-5.4,2.93-5.4,6s2.35,5.67,5.4,6h51.02c3.23-.29,6,2.29,6,5.4s-2.78,5.68-6,5.4h-138.06c-2.73-.32-4.8-2.66-4.8-5.4s2.08-5.08,4.8-5.4h43.82c3.06-.32,5.4-2.93,5.4-6s-2.35-5.67-5.4-6h-19.81c-2.62-.21-4.66-2.31-4.8-4.8-.16-2.69,1.96-5.15,4.8-5.4Z"/>
  <path class="cls-7" d="M488.74,71.96h135.9c5.08-.11,9.13,4.15,8.88,8.88-.23,4.43-4.15,8.11-8.88,7.99h-23.98c-3.54.47-6.22,3.53-6.22,7.11s2.67,6.63,6.22,7.11h83.49c4.79.83,8.21,5.09,7.99,9.77-.2,4.37-3.53,8.12-7.99,8.88h-146.56c-5.01.48-8.88,4.74-8.88,9.77s3.87,9.29,8.88,9.77h52.4c5.39.24,9.35,4.93,8.88,9.77-.41,4.26-4.18,7.83-8.88,7.99h-266.46c-4.87,0-8.88-4.01-8.88-8.88s4.01-8.88,8.88-8.88h140.34c4.39-.99,7.62-4.64,7.99-8.88.42-4.83-2.95-9.48-7.99-10.66h-36.42c-4.65-.42-8.31-3.87-8.88-7.99-.68-4.94,3.2-10.03,8.88-10.66h87.93c3.54-.47,6.22-3.53,6.22-7.11s-2.67-6.63-6.22-7.11h-26.65c-5.08.11-9.13-4.15-8.88-8.88.23-4.43,4.15-8.11,8.88-7.99Z"/>
  <path class="cls-7" d="M561.15,286c.44-3.91,1.27-15.84-6-28-8.67-14.51-22.7-19.03-26-20,6-3.33,12-6.67,18-10,3.56,1.18,17.45,6.22,26,21,6.99,12.09,6.41,23.79,6,28l-18,9Z"/>
  <path class="cls-7" d="M553.15,224c4.14,1.47,17.75,6.88,26.66,21.53,7.01,11.52,7.44,22.71,7.34,27.47l4-2c-.15-5.12-1.17-15.86-8-27-8.71-14.2-21.41-20.12-26-22l-4,2Z"/>
  <path class="cls-6" d="M601.39,430.78c2.15-3.36,8.23-13.82,7.2-28.06-1.23-17-11.72-27.28-14.23-29.61,6.85-.38,13.7-.76,20.54-1.15,2.65,2.63,12.78,13.34,13.78,30.52.82,14.06-4.94,24.42-7.2,28.06-6.7.08-13.4.16-20.09.24Z"/>
  <path class="cls-6" d="M622.04,370.97c3.04,3.16,12.75,14.07,14.13,31.29,1.09,13.55-3.55,23.9-5.76,28.17l4.47-.05c2.16-4.71,6.07-14.92,4.97-28.04-1.41-16.73-10.08-27.69-13.34-31.43l-4.47.05Z"/>
  <rect x="349.15" y="600" width="5" height="325" transform="translate(1114.15 410.85) rotate(90)"/>
  <rect x="349.15" y="-125" width="5" height="325" transform="translate(389.15 -314.15) rotate(90)"/>
</svg>