<?xml version="1.0" encoding="UTF-8"?>
<svg xmlns="http://www.w3.org/2000/svg" version="1.1" viewBox="0 0 220 220">
  <!-- Generator: Adobe Illustrator 29.3.1, SVG Export Plug-In . SVG Version: 2.1.0 Build 151)  -->
  <defs>
    <style>
      .st0 {
        display: none;
      }
    </style>
  </defs>
  <g id="phone" class="st0">
    <path d="M131.5,126.5c4.5-2,9.6.5,13.3,2.2,4.2,2,7.9,3.7,9.4,7.6,2.3,6.1-2.7,13.2-6.5,16.5,0,0-3.5,3.1-8,4.4-14.8,4.1-47.4-14.7-60.1-46.2-3.1-7.8-8.8-21.9-1.9-31.8,4.7-6.7,15.3-11.5,21.5-7.9,4.3,2.5,5.5,8.4,6.2,12.4.7,3.8,1.8,9.5-1.3,12.7-2.7,2.8-7,2.1-8.1,5.2-.4,1.2-.2,2.4.1,3.3,2.7,8.8,9.8,16.1,9.8,16.1,9.5,9.8,14.3,14.8,17.9,13.6,3.7-1.1,2.8-6.1,7.5-8.2Z"/>
  </g>
  <g id="map">
    <path d="M146.9,83.6c-1-12-9.2-19.4-10-20-8.5-7.4-18.3-7.2-20.6-7.1-2.6.1-12.2.9-20.2,8.7-1.8,1.7-7.3,7.5-8.8,16.5-1.6,9.9,2.8,17.7,10.3,30.4,4,6.8,10.2,15.9,19.4,25.5,9.7-10.5,16.1-20.3,20.3-27.4,9.9-17,9.6-24,9.4-26.4ZM117.7,99.8c-9,.5-16.7-8.3-15.5-17.2,1-7.1,7.6-13.3,15.5-12.8,7.4.4,13.1,6.5,13.8,13.4.8,8.3-5.6,16.1-13.8,16.6Z"/>
  </g>
</svg>