<svg xmlns="http://www.w3.org/2000/svg" width="31.763" height="43" viewBox="0 0 31.763 43">
  <g id="map" transform="translate(-86.973 -56.473)">
    <path id="Path_7251" data-name="Path 7251" d="M118.736,70.851a16.437,16.437,0,0,0-5.3-10.6,15.782,15.782,0,0,0-10.919-3.763A16.591,16.591,0,0,0,91.811,61.1a16.049,16.049,0,0,0-4.664,8.746c-.848,5.247,1.484,9.382,5.459,16.113a73.314,73.314,0,0,0,10.283,13.516,84.523,84.523,0,0,0,10.76-14.523c5.247-9.011,5.088-12.721,4.982-13.993Zm-15.477,8.587c-4.77.265-8.852-4.4-8.216-9.117a7.814,7.814,0,0,1,15.53.318A8.1,8.1,0,0,1,103.259,79.438Z" fill="#fff"/>
  </g>
</svg>
