<svg xmlns="http://www.w3.org/2000/svg" width="43.982" height="48" viewBox="0 0 43.982 48">
  <path id="icone-phone" d="M100.971,89.959c2.463-1.095,5.255.274,7.28,1.2,2.3,1.095,4.324,2.025,5.145,4.16,1.259,3.339-1.478,7.226-3.558,9.032a12.832,12.832,0,0,1-4.379,2.409c-8.1,2.244-25.946-8.047-32.9-25.289-1.7-4.27-4.817-11.988-1.04-17.407C74.094,60.4,79.9,57.772,83.29,59.743c2.354,1.368,3.011,4.6,3.394,6.788.383,2.08.985,5.2-.712,6.952-1.478,1.533-3.832,1.15-4.434,2.846a2.868,2.868,0,0,0,.055,1.806,25.265,25.265,0,0,0,5.364,8.813c5.2,5.364,7.828,8.1,9.8,7.445,2.025-.6,1.533-3.339,4.105-4.489Z" transform="translate(-69.733 -59.069)" fill="#fff"/>
</svg>
