<?xml version="1.0" encoding="UTF-8"?>
<svg xmlns="http://www.w3.org/2000/svg" version="1.1" viewBox="0 0 220 220">
  <!-- Generator: Adobe Illustrator 29.3.1, SVG Export Plug-In . SVG Version: 2.1.0 Build 151)  -->
  <defs>
    <style>
      .st0 {
        display: none;
      }
    </style>
  </defs>
  <g id="Layer_1" class="st0">
    <path d="M126.8,115.5c4.5-2,9.6.5,13.3,2.2,4.2,2,7.9,3.7,9.4,7.6,2.3,6.1-2.7,13.2-6.5,16.5,0,0-3.5,3.1-8,4.4-14.8,4.1-47.4-14.7-60.1-46.2-3.1-7.8-8.8-21.9-1.9-31.8,4.7-6.7,15.3-11.5,21.5-7.9,4.3,2.5,5.5,8.4,6.2,12.4.7,3.8,1.8,9.5-1.3,12.7-2.7,2.8-7,2.1-8.1,5.2-.4,1.2-.2,2.4.1,3.3,2.7,8.8,9.8,16.1,9.8,16.1,9.5,9.8,14.3,14.8,17.9,13.6,3.7-1.1,2.8-6.1,7.5-8.2Z"/>
  </g>
  <g id="Layer_2">
    <path d="M177.6,107.4c.1,0,1,.9.9,2.1,0,1.1-.8,1.8-1,1.9-36.4,16.7-72.7,33.4-109.1,50.1-1.3.7-2.8.8-3.9.1-.9-.6-1.3-1.5-1.3-1.6-.4-1-.1-1.9,0-2.1l13.2-37.7c19.4-3.6,38.8-7.2,58.2-10.7-19.3-3.3-38.7-6.6-58-9.9-2.3-6.8-4.7-13.6-7.2-20.4-1.7-4.9-3.5-9.7-5.2-14.4-.3-.8-.8-2.3-.5-4.1.1-.7.2-1.4.7-1.9,1-1.1,3.4-.8,5.9.5,35.8,16.1,71.7,32.1,107.5,48.2Z"/>
  </g>
</svg>